{
  "accessors": [
    {
      "bufferView": 2,
      "componentType": 5126,
      "count": 10704,
      "max": [
        45.005813598632812,
        26.790037155151367,
        74.001441955566406
      ],
      "min": [
        -44.994571685791016,
        -26.790058135986328,
        68.495964050292969
      ],
      "type": "VEC3"
    },
    {
      "bufferView": 2,
      "byteOffset": 128448,
      "componentType": 5126,
      "count": 10704,
      "max": [
        1,
        1,
        1
      ],
      "min": [
        -1,
        -1,
        -1
      ],
      "type": "VEC3"
    },
    {
      "bufferView": 1,
      "componentType": 5126,
      "count": 10704,
      "max": [
        0.99844998121261597,
        0.99880599975585938
      ],
      "min": [
        0.0011940000113099813,
        0.0011940000113099813
      ],
      "type": "VEC2"
    },
    {
      "bufferView": 0,
      "componentType": 5125,
      "count": 26682,
      "max": [
        10703
      ],
      "min": [
        0
      ],
      "type": "SCALAR"
    },
    {
      "bufferView": 2,
      "byteOffset": 256896,
      "componentType": 5126,
      "count": 18,
      "max": [
        32.602291107177734,
        52.947586059570312,
        72.172599792480469
      ],
      "min": [
        -32.602291107177734,
        -52.947586059570312,
        71.387603759765625
      ],
      "type": "VEC3"
    },
    {
      "bufferView": 0,
      "byteOffset": 106728,
      "componentType": 5125,
      "count": 24,
      "max": [
        17
      ],
      "min": [
        0
      ],
      "type": "SCALAR"
    },
    {
      "bufferView": 2,
      "byteOffset": 257112,
      "componentType": 5126,
      "count": 833,
      "max": [
        44.805572509765625,
        44.817527770996094,
        68.500274658203125
      ],
      "min": [
        -44.805572509765625,
        -44.793617248535156,
        -0.0033710000570863485
      ],
      "type": "VEC3"
    },
    {
      "bufferView": 2,
      "byteOffset": 267108,
      "componentType": 5126,
      "count": 833,
      "max": [
        1,
        1,
        1
      ],
      "min": [
        -1,
        -1,
        -0.99998438358306885
      ],
      "type": "VEC3"
    },
    {
      "bufferView": 1,
      "byteOffset": 85632,
      "componentType": 5126,
      "count": 833,
      "max": [
        0.97068601846694946,
        0.99740397930145264
      ],
      "min": [
        0.0026050000451505184,
        0.0026010000146925449
      ],
      "type": "VEC2"
    },
    {
      "bufferView": 0,
      "byteOffset": 106824,
      "componentType": 5125,
      "count": 2388,
      "max": [
        832
      ],
      "min": [
        0
      ],
      "type": "SCALAR"
    },
    {
      "bufferView": 2,
      "byteOffset": 277104,
      "componentType": 5126,
      "count": 15908,
      "max": [
        54.787399291992188,
        53.639144897460938,
        73.861717224121094
      ],
      "min": [
        -54.787399291992188,
        -53.639144897460938,
        -0.0033710000570863485
      ],
      "type": "VEC3"
    },
    {
      "bufferView": 2,
      "byteOffset": 468000,
      "componentType": 5126,
      "count": 15908,
      "max": [
        1,
        1,
        0.99844568967819214
      ],
      "min": [
        -1,
        -1,
        -1
      ],
      "type": "VEC3"
    },
    {
      "bufferView": 1,
      "byteOffset": 92296,
      "componentType": 5126,
      "count": 15908,
      "max": [
        0.99735397100448608,
        0.95446997880935669
      ],
      "min": [
        0.0025969999842345715,
        0.0025979999918490648
      ],
      "type": "VEC2"
    },
    {
      "bufferView": 0,
      "byteOffset": 116376,
      "componentType": 5125,
      "count": 49110,
      "max": [
        15907
      ],
      "min": [
        0
      ],
      "type": "SCALAR"
    },
    {
      "bufferView": 2,
      "byteOffset": 658896,
      "componentType": 5126,
      "count": 13597,
      "max": [
        89.955078125,
        57.585067749023438,
        76.497879028320312
      ],
      "min": [
        -89.955078125,
        -57.585067749023438,
        64.491294860839844
      ],
      "type": "VEC3"
    },
    {
      "bufferView": 2,
      "byteOffset": 822060,
      "componentType": 5126,
      "count": 13597,
      "max": [
        1,
        1,
        1
      ],
      "min": [
        -1,
        -1,
        -1
      ],
      "type": "VEC3"
    },
    {
      "bufferView": 1,
      "byteOffset": 219560,
      "componentType": 5126,
      "count": 13597,
      "max": [
        0.99715697765350342,
        0.99426102638244629
      ],
      "min": [
        0.0028409999795258045,
        0.002845000009983778
      ],
      "type": "VEC2"
    },
    {
      "bufferView": 0,
      "byteOffset": 312816,
      "componentType": 5125,
      "count": 32016,
      "max": [
        13596
      ],
      "min": [
        0
      ],
      "type": "SCALAR"
    },
    {
      "bufferView": 2,
      "byteOffset": 985224,
      "componentType": 5126,
      "count": 976,
      "max": [
        71.751983642578125,
        39.273326873779297,
        73.9927978515625
      ],
      "min": [
        -71.751983642578125,
        -39.273326873779297,
        61.362545013427734
      ],
      "type": "VEC3"
    },
    {
      "bufferView": 2,
      "byteOffset": 996936,
      "componentType": 5126,
      "count": 976,
      "max": [
        0.99999785423278809,
        0.99999761581420898,
        0.89124470949172974
      ],
      "min": [
        -0.99999785423278809,
        -0.99999761581420898,
        -1
      ],
      "type": "VEC3"
    },
    {
      "bufferView": 1,
      "byteOffset": 328336,
      "componentType": 5126,
      "count": 976,
      "max": [
        0.9891819953918457,
        0.98392200469970703
      ],
      "min": [
        0.0028490000404417515,
        0.0028429999947547913
      ],
      "type": "VEC2"
    },
    {
      "bufferView": 0,
      "byteOffset": 440880,
      "componentType": 5125,
      "count": 4008,
      "max": [
        975
      ],
      "min": [
        0
      ],
      "type": "SCALAR"
    }
  ],
  "asset": {
    "extras": {
      "author": "Interiors3D (https://sketchfab.com/Interiors3D)",
      "license": "CC-BY-4.0 (http://creativecommons.org/licenses/by/4.0/)",
      "source": "https://sketchfab.com/3d-models/pptl00-f57c40948f444c4aa496c33a44e2440d",
      "title": "PPTL00"
    },
    "generator": "Sketchfab-7.57.0",
    "version": "2.0"
  },
  "bufferViews": [
    {
      "buffer": 0,
      "byteLength": 456912,
      "byteOffset": 0,
      "name": "floatBufferViews",
      "target": 34963
    },
    {
      "buffer": 0,
      "byteLength": 336144,
      "byteOffset": 456912,
      "byteStride": 8,
      "name": "floatBufferViews",
      "target": 34962
    },
    {
      "buffer": 0,
      "byteLength": 1008648,
      "byteOffset": 793056,
      "byteStride": 12,
      "name": "floatBufferViews",
      "target": 34962
    }
  ],
  "buffers": [
    {
      "byteLength": 1801704,
      "uri": "scene.bin"
    }
  ],
  "images": [
    {
      "uri": "textures/Metal_metallicRoughness.png"
    }
  ],
  "materials": [
    {
      "doubleSided": true,
      "name": "Metal",
      "pbrMetallicRoughness": {
        "baseColorFactor": [
          0.80000000000000004,
          0.80000000000000004,
          0.80000000000000004,
          1
        ],
        "metallicFactor": 1,
        "metallicRoughnessTexture": {
          "index": 0,
          "texCoord": 0
        },
        "roughnessFactor": 1
      }
    },
    {
      "doubleSided": true,
      "emissiveFactor": [
        0,
        0,
        0
      ],
      "name": "Romance_bottom.001",
      "pbrMetallicRoughness": {
        "baseColorFactor": [
          0.80000000000000004,
          0.80000000000000004,
          0.80000000000000004,
          1
        ],
        "metallicFactor": 0,
        "roughnessFactor": 0.80635083268962915
      }
    },
    {
      "doubleSided": true,
      "name": "Romance_top",
      "pbrMetallicRoughness": {
        "baseColorFactor": [
          0.80000000000000004,
          0.80000000000000004,
          0.80000000000000004,
          1
        ],
        "metallicFactor": 0,
        "roughnessFactor": 0.80635083268962915
      }
    }
  ],
  "meshes": [
    {
      "primitives": [
        {
          "attributes": {
            "NORMAL": 1,
            "POSITION": 0,
            "TEXCOORD_0": 2
          },
          "indices": 3,
          "material": 0,
          "mode": 4
        }
      ]
    },
    {
      "primitives": [
        {
          "attributes": {
            "POSITION": 4
          },
          "indices": 5,
          "material": 1,
          "mode": 1
        }
      ]
    },
    {
      "primitives": [
        {
          "attributes": {
            "NORMAL": 7,
            "POSITION": 6,
            "TEXCOORD_0": 8
          },
          "indices": 9,
          "material": 1,
          "mode": 4
        }
      ]
    },
    {
      "primitives": [
        {
          "attributes": {
            "NORMAL": 11,
            "POSITION": 10,
            "TEXCOORD_0": 12
          },
          "indices": 13,
          "material": 1,
          "mode": 4
        }
      ]
    },
    {
      "primitives": [
        {
          "attributes": {
            "NORMAL": 15,
            "POSITION": 14,
            "TEXCOORD_0": 16
          },
          "indices": 17,
          "material": 2,
          "mode": 4
        }
      ]
    },
    {
      "primitives": [
        {
          "attributes": {
            "NORMAL": 19,
            "POSITION": 18,
            "TEXCOORD_0": 20
          },
          "indices": 21,
          "material": 2,
          "mode": 4
        }
      ]
    }
  ],
  "nodes": [
    {
      "children": [
        1
      ],
      "name": "RootNode (gltf orientation matrix)",
      "rotation": [
        -0.70710678118654746,
        -0,
        -0,
        0.70710678118654757
      ]
    },
    {
      "children": [
        2
      ],
      "name": "RootNode (model correction matrix)"
    },
    {
      "children": [
        3,
        4,
        5,
        6,
        7,
        8
      ],
      "name": "W01 - PPTL00 - Sketchfab - mesh.obj.cleaner.materialmerger.gles"
    },
    {
      "mesh": 0,
      "name": ""
    },
    {
      "mesh": 1,
      "name": ""
    },
    {
      "mesh": 2,
      "name": ""
    },
    {
      "mesh": 3,
      "name": ""
    },
    {
      "mesh": 4,
      "name": ""
    },
    {
      "mesh": 5,
      "name": ""
    }
  ],
  "samplers": [
    {
      "magFilter": 9729,
      "minFilter": 9987,
      "wrapS": 10497,
      "wrapT": 10497
    }
  ],
  "scene": 0,
  "scenes": [
    {
      "name": "OSG_Scene",
      "nodes": [
        0
      ]
    }
  ],
  "textures": [
    {
      "sampler": 0,
      "source": 0
    }
  ]
}

